<svg width="793" height="399" viewBox="0 0 793 399" fill="none" xmlns="http://www.w3.org/2000/svg">
<path d="M582.64 325.659V289.927C582.64 285.029 581.686 280.423 579.777 276.107C577.951 271.708 575.419 267.889 572.182 264.652C568.945 261.415 565.127 258.884 560.728 257.058C556.412 255.148 551.805 254.194 546.908 254.194C542.011 254.194 537.362 255.148 532.963 257.058C528.647 258.884 524.871 261.415 521.633 264.652C518.396 267.889 515.823 271.708 513.914 276.107C512.088 280.423 511.175 285.029 511.175 289.927V325.659H582.64ZM618.373 397H582.64V361.267H511.175V397H475.567V289.927C475.567 280.049 477.435 270.794 481.17 262.162C484.905 253.447 489.968 245.852 496.359 239.378C502.833 232.904 510.387 227.799 519.019 224.064C527.734 220.329 537.03 218.461 546.908 218.461C556.785 218.461 566.04 220.329 574.672 224.064C583.387 227.799 590.982 232.904 597.456 239.378C603.931 245.852 609.035 253.447 612.77 262.162C616.506 270.794 618.373 280.049 618.373 289.927V397Z" fill="#1E1F1F"/>
<path d="M685.107 254.194V325.659H720.84C725.737 325.659 730.344 324.746 734.66 322.92C738.976 321.011 742.753 318.438 745.99 315.201C749.227 311.964 751.758 308.187 753.584 303.871C755.493 299.472 756.448 294.824 756.448 289.927C756.448 285.029 755.493 280.423 753.584 276.107C751.758 271.708 749.227 267.889 745.99 264.652C742.753 261.415 738.976 258.884 734.66 257.058C730.344 255.148 725.737 254.194 720.84 254.194H685.107ZM685.107 397H649.375V218.461H720.84C727.397 218.461 733.705 219.333 739.764 221.076C745.824 222.736 751.468 225.143 756.697 228.297C762.009 231.368 766.823 235.103 771.139 239.502C775.539 243.819 779.274 248.633 782.345 253.945C785.499 259.257 787.906 264.943 789.566 271.002C791.309 277.061 792.181 283.369 792.181 289.927C792.181 299.721 790.313 308.976 786.578 317.691C782.843 326.323 777.738 333.876 771.264 340.351C764.79 346.825 757.195 351.93 748.48 355.665C739.847 359.4 730.634 361.267 720.84 361.267H685.107V397Z" fill="#1E1F1F"/>
<path d="M158.22 169.088C149.643 176.464 140.037 182.125 129.401 186.07C118.766 190.016 107.745 191.988 96.3373 191.988C87.5888 191.988 79.1406 190.83 70.9925 188.515C62.9301 186.285 55.3396 183.111 48.2207 178.994C41.1876 174.792 34.7549 169.774 28.9226 163.942C23.0903 158.109 18.0727 151.677 13.87 144.644C9.75311 137.525 6.53676 129.934 4.22098 121.872C1.99098 113.724 0.875977 105.275 0.875977 96.5269C0.875977 87.7784 1.99098 79.3302 4.22098 71.1821C6.53676 63.034 9.75311 55.4434 13.87 48.4103C18.0727 41.2914 23.0903 34.8158 28.9226 28.9835C34.7549 23.1512 41.1876 18.1766 48.2207 14.0596C55.3396 9.85694 62.9301 6.64059 70.9925 4.41058C79.1406 2.09481 87.5888 0.93692 96.3373 0.93692C107.745 0.93692 118.766 2.90962 129.401 6.85501C140.037 10.7146 149.643 16.3754 158.22 23.8374L138.665 56.0009C133.261 50.1686 126.871 45.7085 119.495 42.6208C112.119 39.4474 104.4 37.8606 96.3373 37.8606C88.1892 37.8606 80.5557 39.4045 73.4369 42.4922C66.318 45.5799 60.0998 49.7826 54.782 55.1003C49.4643 60.3322 45.2616 66.5505 42.1739 73.7551C39.0862 80.874 37.5424 88.4646 37.5424 96.5269C37.5424 104.589 39.0862 112.18 42.1739 119.299C45.2616 126.332 49.4643 132.507 54.782 137.825C60.0998 143.143 66.318 147.345 73.4369 150.433C80.5557 153.521 88.1892 155.065 96.3373 155.065C104.4 155.065 112.119 153.521 119.495 150.433C126.871 147.26 133.261 142.757 138.665 136.924L158.22 169.088Z" fill="#1E1F1F"/>
<path d="M288.289 114.281V77.3575C288.289 72.2971 287.303 67.5369 285.33 63.0769C283.443 58.5311 280.827 54.5857 277.482 51.2407C274.137 47.8957 270.192 45.2797 265.646 43.3928C261.186 41.4201 256.426 40.4337 251.366 40.4337C246.305 40.4337 241.502 41.4201 236.956 43.3928C232.496 45.2797 228.594 47.8957 225.249 51.2407C221.904 54.5857 219.245 58.5311 217.272 63.0769C215.385 67.5369 214.442 72.2971 214.442 77.3575V114.281H288.289ZM325.213 188H288.289V151.076H214.442V188H177.647V77.3575C177.647 67.1509 179.577 57.5876 183.436 48.6676C187.296 39.6618 192.528 31.8139 199.132 25.1239C205.822 18.4339 213.627 13.1591 222.547 9.29944C231.553 5.43981 241.159 3.51 251.366 3.51C261.572 3.51 271.135 5.43981 280.055 9.29944C289.061 13.1591 296.909 18.4339 303.599 25.1239C310.289 31.8139 315.564 39.6618 319.424 48.6676C323.283 57.5876 325.213 67.1509 325.213 77.3575V188Z" fill="#1E1F1F"/>
<path d="M550.983 145.7C552.73 146.245 554.476 146.628 556.223 146.846C557.969 146.955 559.716 147.01 561.463 147.01C565.829 147.01 570.032 146.409 574.071 145.208C578.11 144.008 581.876 142.316 585.369 140.132C588.971 137.84 592.137 135.111 594.866 131.945C597.704 128.671 599.996 125.068 601.743 121.138L634.491 154.051C630.343 159.945 625.54 165.24 620.082 169.933C614.733 174.627 608.893 178.612 602.562 181.887C596.339 185.161 589.735 187.618 582.749 189.255C575.872 191.002 568.776 191.875 561.463 191.875C549.127 191.875 537.502 189.582 526.586 184.998C515.779 180.413 506.282 174.027 498.095 165.84C490.017 157.653 483.631 147.937 478.937 136.694C474.243 125.341 471.896 112.897 471.896 99.3608C471.896 85.4974 474.243 72.8347 478.937 61.3728C483.631 49.9109 490.017 40.1409 498.095 32.063C506.282 23.9851 515.779 17.7083 526.586 13.2327C537.502 8.75714 549.127 6.51934 561.463 6.51934C568.776 6.51934 575.926 7.39263 582.913 9.13921C589.899 10.8858 596.503 13.3965 602.725 16.6713C609.057 19.9462 614.951 23.9851 620.41 28.7882C625.868 33.4821 630.671 38.7764 634.819 44.6711L550.983 145.7ZM573.907 53.5132C571.833 52.7491 569.759 52.2578 567.685 52.0395C565.72 51.8212 563.646 51.712 561.463 51.712C555.35 51.712 549.564 52.8582 544.106 55.1506C538.757 57.3338 534.063 60.4995 530.024 64.6476C526.094 68.7957 522.983 73.8171 520.691 79.7118C518.398 85.4974 517.252 92.047 517.252 99.3608C517.252 100.998 517.307 102.854 517.416 104.928C517.634 107.002 517.907 109.131 518.235 111.314C518.671 113.388 519.163 115.408 519.708 117.372C520.254 119.337 520.964 121.084 521.837 122.612L573.907 53.5132Z" fill="#F14949"/>
<path d="M358.419 337.867C358.419 337.867 357.381 210.008 358.572 218.398C359.764 226.787 398.602 198.158 396.093 218.398C393.583 238.637 396.093 281.509 396.093 281.509C396.093 281.509 425.524 278.378 425.678 281.509C425.831 284.64 430.546 309.688 425.678 308.123C420.81 306.557 395.549 308.123 395.549 308.123V359.784C395.549 366.047 405.592 366.047 410.614 366.047C415.635 366.047 438.915 362.915 440.742 366.047C442.569 369.178 442.262 398.922 440.742 398.922H415.635C415.635 398.922 395.744 399.097 392.202 398.922C388.659 398.747 375.773 397.064 368.615 392.66C361.457 388.256 358.572 378.571 358.572 369.178C358.572 359.784 358.419 337.867 358.419 337.867Z" fill="black"/>
<path d="M359 64.4879C359 64.4879 359 176.822 359.152 195.613C359.305 214.405 396.412 184.652 396.412 195.613V121.174C396.412 121.174 425.639 124.323 425.791 121.174C425.944 118.025 430.625 92.8309 425.791 94.4055C420.957 95.9801 395.872 94.4055 395.872 94.4055V42.4434C395.872 36.1449 405.845 36.145 410.832 36.145C415.818 36.145 438.936 39.2942 440.751 36.145C442.565 32.9957 442.261 3.0782 440.751 3.0782H415.818C415.818 3.0782 396.066 2.90225 392.548 3.0782C389.03 3.25415 376.234 4.94701 369.125 9.37663C362.017 13.8063 359.152 23.5481 359.152 32.9957C359.152 42.4434 359 64.4879 359 64.4879Z" fill="black"/>
</svg>
